# xmcd
#
# Track frame offsets: 
#        183
#        21868
#        43195
#        62125
#        85795
#        101873
#        125085
#        162263
#
# Disc length: 2640 seconds
#
# Revision: 2
# Processed by: cddbd v1.5.2PL0 Copyright (c) Steve Scherf et al.
# Submitted via: ExactAudioCopy v0.95a5
#
DISCID=6b0a4e08
DTITLE=John Lee Hooker - Lonesome Mood
DYEAR=1983
DGENRE=Blues
TTITLE0=Bang bag bang
TTITLE1=The hookers (If you miss 'im... I got 'im)
TTITLE2=Baby, I love you
TTITLE3=Lonsome mood
TTITLE4=If you take care of me, I'll take care of you
TTITLE5=Baby, Be strong
TTITLE6=I wanna be your puppy, Baby
TTITLE7=Have mercy on my soul
EXTD=
EXTT0=
EXTT1=
EXTT2=
EXTT3=
EXTT4=
EXTT5=
EXTT6=
EXTT7=
PLAYORDER=
